<svg id="Сгруппировать_1321" data-name="Сгруппировать 1321" xmlns="http://www.w3.org/2000/svg" width="40" height="40" viewBox="0 0 40 40">
  <circle id="Эллипс_21" data-name="Эллипс 21" cx="20" cy="20" r="20" transform="translate(0)" fill="#282828"/>
  <path id="Контур_58" data-name="Контур 58" d="M93.712,574.232a.35.35,0,0,1-.121-.319c0-.709,0-1.417,0-2.125,0-.1.008-.2.009-.3a1.527,1.527,0,0,1,.186-.676,1.157,1.157,0,0,1,.8-.645,4.023,4.023,0,0,1,.937-.129c.474,0,.948,0,1.422,0,.116,0,.232-.022.346-.034a.572.572,0,0,0,.083-.168c.015-.176.02-.352.02-.53q0-1.091,0-2.183a.4.4,0,0,0-.12-.352,5.447,5.447,0,0,0-.725-.1,1.615,1.615,0,0,0-.411-.039c-.592-.009-1.185-.012-1.777-.017a5.288,5.288,0,0,0-1.908.365,3.694,3.694,0,0,0-1.16.7,4.3,4.3,0,0,0-1.369,2.294,8.089,8.089,0,0,0-.2,1.7c-.011.688,0,1.376,0,2.064a.82.82,0,0,1-.072.472.455.455,0,0,1-.145.068c-.156.015-.315.019-.472.02-.651,0-1.3,0-1.954,0-.156,0-.312.017-.436.024a.366.366,0,0,0-.135.346q0,1.3,0,2.6c0,.138,0,.275.011.412a1.286,1.286,0,0,0,.062.228,1.592,1.592,0,0,0,.239.054c.157.009.316.007.474.007.632,0,1.263,0,1.9,0a.964.964,0,0,1,.458.056.318.318,0,0,1,.132.258c.007.2.01.393.01.59q0,3.924,0,7.847c0,.177,0,.354.009.531a1.307,1.307,0,0,0,.058.235,1.95,1.95,0,0,0,.284.089,2.222,2.222,0,0,0,.354.02q1.273,0,2.547,0a2,2,0,0,0,.352-.032.622.622,0,0,0,.164-.1c.012-.132.034-.266.035-.4,0-.57,0-1.141,0-1.711q0-3.3,0-6.609a4.5,4.5,0,0,1,.023-.53.628.628,0,0,1,.1-.2,2.008,2.008,0,0,1,.248-.047c.138-.008.276,0,.415,0,.671,0,1.343,0,2.014,0a.467.467,0,0,0,.365-.1,1.6,1.6,0,0,0,.141-.59c.01-.138.014-.276.032-.412.1-.759.206-1.518.307-2.277a.244.244,0,0,0-.153-.273c-.152,0-.349-.011-.546-.012-.79,0-1.579,0-2.369,0A1,1,0,0,1,93.712,574.232Z" transform="translate(-71.5 -557.612)" fill="#a5a5a5"/>
</svg>
