<svg id="Сгруппировать_1322" data-name="Сгруппировать 1322" xmlns="http://www.w3.org/2000/svg" width="40" height="40" viewBox="0 0 40 40">
  <circle id="Эллипс_19" data-name="Эллипс 19" cx="20" cy="20" r="20" fill="#282828"/>
  <g id="Сгруппировать_15" data-name="Сгруппировать 15" transform="translate(10 9.401)">
    <path id="Контур_54" data-name="Контур 54" d="M91.8,533.494c-1.233,0-2.465.02-3.7-.009a10.319,10.319,0,0,1-2-.188A5.37,5.37,0,0,1,82,529.82a6.807,6.807,0,0,1-.433-2.352c-.027-2.306-.068-4.611-.064-6.917a19.156,19.156,0,0,1,.177-2.91,5.294,5.294,0,0,1,3.356-4.383,6.623,6.623,0,0,1,2.426-.49c2.377-.033,4.754-.07,7.132-.069a21.455,21.455,0,0,1,2.739.169A5.47,5.47,0,0,1,101,514.9a5.362,5.362,0,0,1,1.11,2.575,12.238,12.238,0,0,1,.169,1.791c.018,2.523.025,5.044,0,7.566a12.137,12.137,0,0,1-.24,2.17,5.427,5.427,0,0,1-4.613,4.319,18.931,18.931,0,0,1-2.738.176c-.96,0-1.921,0-2.881,0Zm8.684-10.438h0c0-1.017.02-2.035-.007-3.051a18.638,18.638,0,0,0-.167-2.179,3.636,3.636,0,0,0-.924-2,3.73,3.73,0,0,0-2.465-1.17c-1-.093-2-.153-3-.155-1.976,0-3.952.035-5.928.065a9.32,9.32,0,0,0-1.2.1,4.18,4.18,0,0,0-1.8.654,3.58,3.58,0,0,0-1.531,2.672,26.74,26.74,0,0,0-.163,2.912c-.007,1.961.031,3.924.061,5.885a13.17,13.17,0,0,0,.1,1.411,4.108,4.108,0,0,0,.562,1.657,3.492,3.492,0,0,0,2.688,1.648,28.823,28.823,0,0,0,2.91.169q2.513.04,5.029,0a22.4,22.4,0,0,0,2.523-.172,3.591,3.591,0,0,0,3.146-3.214c.082-.709.14-1.424.157-2.137C100.506,525.12,100.486,524.088,100.486,523.056Z" transform="translate(-81.5 -512.699)" fill="#a5a5a5"/>
    <path id="Контур_55" data-name="Контур 55" d="M97.273,523.158A5.329,5.329,0,1,1,92,517.816,5.359,5.359,0,0,1,97.273,523.158Zm-1.806.017a3.474,3.474,0,0,0-3.512-3.533,3.41,3.41,0,0,0-3.513,3.481,3.464,3.464,0,0,0,3.551,3.533A3.5,3.5,0,0,0,95.467,523.174Z" transform="translate(-81.55 -512.75)" fill="#a5a5a5"/>
    <path id="Контур_56" data-name="Контур 56" d="M98.827,517.642a1.224,1.224,0,0,1-1.238,1.167,1.234,1.234,0,1,1,.043-2.467A1.226,1.226,0,0,1,98.827,517.642Z" transform="translate(-81.647 -512.735)" fill="#a5a5a5"/>
  </g>
</svg>
