<svg id="Сгруппировать_5349" data-name="Сгруппировать 5349" xmlns="http://www.w3.org/2000/svg" width="40" height="40" viewBox="0 0 40 40">
  <circle id="Эллипс_21" data-name="Эллипс 21" cx="20" cy="20" r="20" transform="translate(0)" fill="#282828"/>
  <g id="Сгруппировать_5296" data-name="Сгруппировать 5296" transform="translate(10.039 13.43)">
    <path id="Контур_60897" data-name="Контур 60897" d="M-91.681-151.421a2.5,2.5,0,0,0-1.758-1.758c-1.542-.421-7.747-.421-7.747-.421s-6.205.013-7.747.433a2.5,2.5,0,0,0-1.758,1.758,26.121,26.121,0,0,0-.408,4.766,25.532,25.532,0,0,0,.42,4.778,2.5,2.5,0,0,0,1.758,1.758c1.542.42,7.747.42,7.747.42s6.205,0,7.747-.42a2.5,2.5,0,0,0,1.758-1.758,25.458,25.458,0,0,0,.42-4.778A25.926,25.926,0,0,0-91.681-151.421Z" transform="translate(111.1 153.6)" fill="#a5a5a5"/>
    <path id="Контур_60898" data-name="Контур 60898" d="M-48.8-116.437l5.148-2.982L-48.8-122.4Z" transform="translate(56.738 126.376)" fill="#282828"/>
  </g>
</svg>
