<svg id="Сгруппировать_1320" data-name="Сгруппировать 1320" xmlns="http://www.w3.org/2000/svg" width="40" height="40" viewBox="0 0 40 40">
  <circle id="Эллипс_20" data-name="Эллипс 20" cx="20" cy="20" r="20" fill="#282828"/>
  <g id="Сгруппировать_16" data-name="Сгруппировать 16" transform="translate(8.63 13.5)">
    <path id="Контур_57" data-name="Контур 57" d="M83.043,463.281c.489,0,.978,0,1.467,0a1,1,0,0,1,.978.656,20.03,20.03,0,0,0,2.231,4.094,9.6,9.6,0,0,0,.727.825.611.611,0,0,0,.155.109.433.433,0,0,0,.684-.205,3.566,3.566,0,0,0,.211-.776,10.243,10.243,0,0,0,.066-2,10.141,10.141,0,0,0-.13-1.264,1.174,1.174,0,0,0-1.025-1c-.3-.064-.322-.134-.123-.373a1.488,1.488,0,0,1,.952-.51c.362-.057.728-.089,1.094-.111s.759-.033,1.138-.022a7.47,7.47,0,0,1,1.693.16.958.958,0,0,1,.789.92,23.205,23.205,0,0,1-.026,2.446c-.005.672,0,1.345.036,2.015a1.328,1.328,0,0,0,.23.583.337.337,0,0,0,.535.11,3.985,3.985,0,0,0,.672-.612,13.068,13.068,0,0,0,1.319-1.957,18.782,18.782,0,0,0,1.177-2.473,1.667,1.667,0,0,1,.085-.188.708.708,0,0,1,.672-.4c1.093,0,2.186,0,3.279,0,.275,0,.55-.005.824,0a.861.861,0,0,1,.265.066.47.47,0,0,1,.335.582,4.532,4.532,0,0,1-.285.844,12.151,12.151,0,0,1-1.29,2.037c-.559.753-1.13,1.5-1.691,2.247a4.685,4.685,0,0,0-.309.5.827.827,0,0,0,.087,1.009c.154.185.32.362.491.532.536.529,1.088,1.044,1.614,1.583a7.21,7.21,0,0,1,1.22,1.6,2,2,0,0,1,.115.25.669.669,0,0,1-.367.915,1.98,1.98,0,0,1-.854.177c-.333.007-.667.007-1,.012-.575.008-1.15,0-1.724.031a2.442,2.442,0,0,1-1.792-.626c-.388-.34-.73-.732-1.088-1.105-.3-.314-.6-.64-.905-.948a1.55,1.55,0,0,0-.38-.264.582.582,0,0,0-.761.143,1.434,1.434,0,0,0-.342.706c-.066.342-.1.691-.143,1.037-.012.1,0,.2-.023.291a.786.786,0,0,1-.854.7c-.529,0-1.058.007-1.586,0a6.677,6.677,0,0,1-2.408-.53,8.72,8.72,0,0,1-3.374-2.477,25.489,25.489,0,0,1-2.773-4.051,47.21,47.21,0,0,1-2.175-4.308,1.751,1.751,0,0,1-.106-.326.412.412,0,0,1,.317-.556,2.5,2.5,0,0,1,.61-.087c.488-.012.978,0,1.467,0Z" transform="translate(-80.63 -462.704)" fill="#a5a5a5"/>
  </g>
</svg>
